<svg version="1.1" id="Layer_1" xmlns="http://www.w3.org/2000/svg" xmlns:xlink="http://www.w3.org/1999/xlink" x="0px" y="0px"
	 width="100%" viewBox="0 0 1024 672" enable-background="new 0 0 1024 672" xml:space="preserve">
<path fill="#000000" opacity="1.000000" stroke="none" 
	d="
M245.791107,379.445190 
	C226.501297,370.666199 219.316742,353.885010 220.195572,338.070190 
	C221.361404,317.090668 234.027206,300.659180 252.660492,296.954315 
	C260.198761,295.455444 262.997375,292.025452 265.903595,285.790894 
	C274.857208,266.583313 295.255615,255.446686 318.411255,257.901093 
	C339.189362,260.103455 353.723480,271.747345 361.154419,291.475800 
	C362.531433,295.131744 364.266602,297.046051 368.072968,298.233215 
	C389.390350,304.882111 401.285950,325.914215 397.592529,348.579529 
	C394.718506,366.216705 382.454407,379.214081 367.410370,381.770996 
	C362.999237,382.520752 358.467773,382.831482 353.988068,382.863220 
	C331.992218,383.019104 309.995239,383.036591 287.998657,383.049805 
	C281.648682,383.053619 278.943359,380.857361 278.771088,374.508118 
	C278.193085,353.209534 277.814117,331.900787 278.542877,310.597382 
	C278.729279,305.148438 281.197754,302.878815 286.715027,302.766296 
	C293.377747,302.630402 300.046570,302.679657 306.710907,302.775787 
	C311.534271,302.845306 315.515106,304.887573 318.042145,308.990479 
	C319.856232,311.935791 322.150024,312.843048 325.484680,312.780609 
	C334.646637,312.608917 343.814209,312.714569 352.979431,312.743286 
	C361.433472,312.769775 363.963959,315.272736 364.008484,323.839172 
	C364.075989,336.836639 364.008453,349.834869 364.085205,362.832245 
	C364.123016,369.235626 365.883636,370.172699 371.544769,367.024506 
	C386.084442,358.938904 390.261841,337.030090 380.180237,322.167084 
	C375.046967,314.599243 367.619843,310.880890 358.932587,309.513702 
	C355.232544,308.931396 353.502930,307.137421 352.421448,303.720154 
	C349.065216,293.114624 344.697784,283.268616 334.703125,276.803192 
	C314.891541,263.987396 288.054626,270.809448 277.220642,291.808167 
	C275.466949,295.207245 273.868958,298.710236 272.511200,302.283875 
	C270.951263,306.389587 268.316589,308.170532 263.834839,308.269684 
	C242.861740,308.733734 229.126755,326.092224 233.353653,346.526398 
	C236.102524,359.815308 248.251282,369.516296 263.512177,370.598602 
	C264.841003,370.692841 266.205292,370.572876 267.498627,370.828278 
	C271.127716,371.544800 273.019745,374.024445 272.979156,377.551697 
	C272.938751,381.060272 270.412872,382.254883 267.218079,382.458435 
	C259.997772,382.918488 252.923309,382.395966 245.791107,379.445190 
M316.266815,363.253204 
	C319.423309,366.552460 322.305603,365.949524 325.117065,362.728973 
	C327.410187,360.102112 329.843079,357.597809 332.162659,354.993469 
	C337.243835,349.288544 342.300171,343.561462 347.349426,337.828217 
	C348.812225,336.167267 349.457550,334.299896 347.722931,332.503906 
	C345.982422,330.701843 344.035278,331.277008 342.391846,332.714294 
	C341.026581,333.908264 339.854126,335.327209 338.628937,336.676208 
	C332.733582,343.167419 326.849243,349.668732 320.949188,356.179474 
	C317.213043,354.622650 315.367126,351.478271 312.726990,349.294098 
	C310.721130,347.634644 308.516724,345.787048 306.237000,348.187073 
	C303.969360,350.574402 305.889191,352.830353 307.643738,354.665619 
	C310.283203,357.426453 313.047974,360.067444 316.266815,363.253204 
z"/>
<path fill="#000000" opacity="1.000000" stroke="none" 
	d="
M467.031555,351.003571 
	C465.313324,362.952820 458.893402,368.785797 446.590454,369.996307 
	C435.374298,371.099854 425.740082,365.866119 422.672394,356.893127 
	C421.907074,354.654480 420.369232,352.039795 423.453369,350.340637 
	C426.417114,348.707855 432.239380,350.194458 433.536163,352.665283 
	C436.939026,359.148834 443.150391,361.524445 449.801208,358.885986 
	C452.802826,357.695221 454.925171,355.901215 454.845673,352.283234 
	C454.769806,348.832031 452.616852,347.213043 449.747986,346.331818 
	C445.462524,345.015442 441.065979,344.050476 436.807770,342.657593 
	C425.489746,338.955414 420.742676,331.479218 423.118439,321.303314 
	C425.668488,310.380829 435.174835,306.444824 445.362183,307.113251 
	C454.107727,307.687103 462.251801,310.177765 465.441284,319.857727 
	C466.231750,322.256775 467.823975,325.100830 464.217773,326.697693 
	C460.668335,328.269440 455.825378,326.807770 454.366974,323.932312 
	C451.415344,318.112671 445.215393,315.826508 439.312347,318.355957 
	C436.672760,319.486969 434.776703,321.353607 434.526764,324.239868 
	C434.261169,327.307343 436.306824,329.188660 438.854523,330.334656 
	C442.809387,332.113525 447.060211,332.965240 451.271057,333.943512 
	C461.528900,336.326660 465.402832,340.474426 467.031555,351.003571 
z"/>
<path fill="#000000" opacity="1.000000" stroke="none" 
	d="
M568.120728,385.174316 
	C563.316284,385.581085 562.870056,382.896332 562.885315,379.486511 
	C562.959167,363.002075 562.878723,346.516846 562.979309,330.032654 
	C562.993103,327.768372 561.930908,324.219757 565.459717,323.951111 
	C569.037170,323.678802 573.556030,321.635010 576.038879,326.925476 
	C580.849060,324.165466 585.678284,321.642029 591.525513,323.045746 
	C600.348938,325.163910 605.345276,331.316711 606.894043,342.300476 
	C608.786865,355.724365 602.082520,367.118988 590.827087,369.607758 
	C586.413940,370.583588 583.662537,370.103516 576.064331,366.953094 
	C574.642700,370.625427 575.452576,374.422852 575.367798,378.103455 
	C575.208252,385.033173 575.307007,385.035431 568.120728,385.174316 
M590.872925,357.418823 
	C595.769714,352.613892 595.497742,346.622864 594.273071,340.689331 
	C593.345886,336.196716 588.966064,333.199982 584.783264,333.377655 
	C580.315857,333.567352 576.210938,336.996124 575.465210,341.626923 
	C575.048706,344.213104 575.044617,346.932159 575.300537,349.547729 
	C576.092346,357.640503 582.839294,361.314880 590.872925,357.418823 
z"/>
<path fill="#000000" opacity="1.000000" stroke="none" 
	d="
M655.188965,347.499115 
	C655.608948,359.856689 650.604065,366.877655 640.091797,369.188690 
	C627.608948,371.932983 616.086426,367.598358 612.109497,358.391968 
	C611.028198,355.889008 608.748352,352.700989 612.428345,350.473602 
	C615.831177,348.413971 620.990723,350.353607 622.743896,353.902008 
	C625.875977,360.241211 636.709412,361.863983 641.696655,356.740997 
	C645.090088,353.255280 644.316650,348.602386 639.543518,346.643036 
	C635.418640,344.949829 630.942932,344.126068 626.652466,342.818909 
	C613.635925,338.853149 608.447388,329.673340 612.897644,318.255829 
	C616.242981,309.673340 623.664917,307.378326 631.830872,306.925598 
	C641.843994,306.370392 650.974854,311.722015 653.665955,319.607758 
	C654.412964,321.796936 656.640564,324.726562 653.013245,326.567505 
	C649.541809,328.329315 644.169495,326.714417 642.653931,323.701385 
	C639.781982,317.991852 634.019836,315.813660 628.011353,318.108887 
	C625.287292,319.149506 623.519958,320.890350 623.282715,323.922699 
	C623.055542,326.826263 624.638794,328.619446 626.993958,329.887390 
	C631.007996,332.048431 635.503235,332.681702 639.830383,333.845459 
	C647.060486,335.789917 653.376404,338.790009 655.188965,347.499115 
z"/>
<path fill="#000000" opacity="1.000000" stroke="none" 
	d="
M549.410034,368.996185 
	C546.497131,369.365967 545.295349,367.283447 543.686890,365.880859 
	C538.807312,369.149719 533.839661,370.995331 528.017151,369.384155 
	C521.339844,367.536438 517.891907,363.631714 517.629150,357.120789 
	C517.331360,349.738708 520.222778,345.053436 526.729553,342.771790 
	C531.168396,341.215363 535.906677,341.383820 540.505615,340.742584 
	C542.053040,340.526855 544.103577,341.177612 544.577087,338.863037 
	C544.987061,336.859375 543.901550,335.328949 542.455139,334.085907 
	C539.227173,331.311615 534.127380,331.673950 531.488220,335.554260 
	C528.453003,340.016815 524.385193,338.242493 520.688599,338.009186 
	C518.384583,337.863770 519.036743,335.594879 519.459595,333.980408 
	C521.077332,327.803711 527.196655,323.278503 535.569885,322.808563 
	C547.094910,322.161713 556.042358,326.221375 556.682800,339.655640 
	C557.078430,347.953156 556.860962,356.280090 556.909790,364.593872 
	C556.940918,369.895691 553.051025,368.925018 549.410034,368.996185 
M539.066772,359.669708 
	C541.774780,358.673950 543.370911,356.623199 544.278198,354.002289 
	C544.793030,352.515106 545.022034,350.662903 542.975037,350.431793 
	C539.208862,350.006683 535.264404,349.515686 531.799438,351.594604 
	C528.644226,353.487671 528.711975,357.261780 531.740845,359.416321 
	C533.834167,360.905334 536.067932,360.915497 539.066772,359.669708 
z"/>
<path fill="#000000" opacity="1.000000" stroke="none" 
	d="
M503.305573,368.909119 
	C500.181824,368.035889 500.712494,365.777893 500.693176,363.872742 
	C500.618866,356.552734 500.845825,349.222046 500.518463,341.915161 
	C500.333618,337.789398 498.983887,333.909943 493.853027,333.382233 
	C489.278107,332.911682 486.114319,335.531372 484.971527,340.865265 
	C484.557983,342.795410 484.419250,344.811920 484.392273,346.792267 
	C484.312897,352.614594 484.154968,358.447296 484.410767,364.259064 
	C484.600098,368.559967 482.341431,369.251923 478.851227,369.119843 
	C475.486237,368.992523 471.989716,369.595520 472.049316,364.355438 
	C472.177917,353.050903 472.013214,341.743134 472.113159,330.437958 
	C472.133545,328.131134 471.030548,324.613129 474.176270,324.030609 
	C477.478760,323.419006 481.365234,322.219604 484.432861,325.299744 
	C484.760132,325.628357 485.170410,325.874329 485.641998,326.234985 
	C489.696381,324.209259 493.753021,322.283691 498.449463,322.722656 
	C507.197968,323.540375 512.350281,329.021454 512.956238,339.406281 
	C513.449646,347.862061 513.043945,356.369232 513.077209,364.853485 
	C513.088806,367.818237 511.562256,369.065826 508.741913,369.035248 
	C507.079224,369.017212 505.416504,369.003845 503.305573,368.909119 
z"/>
<path fill="#000000" opacity="1.000000" stroke="none" 
	d="
M751.414856,354.587372 
	C756.590454,362.356964 763.562256,362.867554 769.415649,356.117157 
	C771.813477,353.351959 774.842346,353.668610 777.659546,354.466553 
	C780.404297,355.243958 778.915283,357.436371 778.233276,358.996857 
	C775.122620,366.115082 769.541260,369.819153 761.861694,370.037872 
	C753.613098,370.272736 746.753418,367.420990 742.881470,359.676666 
	C738.974426,351.862000 738.518250,343.694580 741.687073,335.507355 
	C745.182861,326.475250 752.734680,321.944885 762.551453,322.725769 
	C771.148804,323.409698 777.287781,329.251160 779.302612,338.665253 
	C781.633911,349.558350 781.296326,349.984283 770.239502,350.012634 
	C764.915710,350.026306 759.591858,350.036774 754.268066,350.026642 
	C751.243896,350.020874 749.731567,351.040100 751.414856,354.587372 
M765.756531,341.661072 
	C769.279724,341.878693 769.620178,340.055023 768.578369,337.300934 
	C767.126160,333.462067 763.172241,331.394379 758.381958,332.294464 
	C753.779480,333.159271 751.390015,336.088989 750.990601,341.037811 
	C755.753357,342.213348 760.364807,341.414520 765.756531,341.661072 
z"/>
<path fill="#000000" opacity="1.000000" stroke="none" 
	d="
M697.173828,342.226685 
	C697.179443,349.692627 697.195007,356.686005 697.176697,363.679321 
	C697.170471,366.054962 697.205994,368.377777 693.951965,368.930298 
	C690.104004,369.583649 687.984375,368.785217 686.099426,365.235901 
	C681.240845,369.297699 675.832458,371.110016 669.521729,369.224609 
	C663.154602,367.322357 658.987854,362.163696 658.895813,355.718811 
	C658.810791,349.761353 662.529358,345.071075 668.912170,342.940247 
	C673.442261,341.427856 678.115112,341.757416 682.767151,341.631409 
	C686.541809,341.529175 687.718079,339.646179 686.368225,336.114716 
	C685.286255,333.284119 682.952698,332.090515 680.176392,331.747131 
	C677.002014,331.354492 673.861877,332.118134 672.418823,335.060181 
	C670.278320,339.424194 666.632568,338.360046 663.349426,338.070465 
	C660.274170,337.799194 661.079346,335.385010 661.717407,333.458771 
	C664.387939,325.396484 674.289490,320.836365 684.128418,323.098755 
	C692.847839,325.103760 696.377686,330.152832 697.173828,342.226685 
M686.148315,350.076416 
	C681.748352,348.809113 677.320068,348.768555 673.021484,350.308289 
	C670.430237,351.236450 669.012207,353.355316 669.439209,356.195953 
	C669.866943,359.041016 671.837646,360.378662 674.605286,360.750854 
	C681.288391,361.649597 686.104919,357.624817 686.148315,350.076416 
z"/>
<path fill="#000000" opacity="1.000000" stroke="none" 
	d="
M734.233459,342.103943 
	C731.308105,350.115540 728.387878,357.719940 725.744873,365.419525 
	C724.644287,368.625732 722.476074,369.193298 719.573425,369.134125 
	C716.685608,369.075287 713.901733,369.250305 712.676758,365.701111 
	C708.176270,352.662201 703.570679,339.659607 699.043091,326.629974 
	C698.841919,326.051086 699.017334,325.341400 699.017334,324.734039 
	C706.685608,322.076630 708.784912,323.059601 711.127930,330.360046 
	C713.700134,338.374969 716.249084,346.397400 719.815186,354.389282 
	C722.431030,346.556091 725.055054,338.725616 727.660583,330.888916 
	C730.320190,322.889587 731.256042,322.385071 740.627319,324.520813 
	C738.518860,330.303223 736.434631,336.019165 734.233459,342.103943 
z"/>
</svg>